/* XPM */
static char *_87d03a109ca4283d8d6a675891a9f2fSi6ZqLsRynRwUkaR[] = {
/* columns rows colors chars-per-pixel */
"64 64 140 2 ",
"   c #85B005",
".  c #86B10D",
"X  c #87B113",
"o  c #88B216",
"O  c #87B119",
"+  c #8AB41D",
"@  c #92BA1E",
"#  c #8DB524",
"$  c #8EB629",
"%  c #90B726",
"&  c #91B925",
"*  c #90B72B",
"=  c #92B92C",
"-  c #8FB634",
";  c #8FB63B",
":  c #90B735",
">  c #95BB33",
",  c #98BE35",
"<  c #90B738",
"1  c #95BB3A",
"2  c #99BE3A",
"3  c #9BC02D",
"4  c #9CC137",
"5  c #9CC13C",
"6  c #A1C53F",
"7  c #96BB43",
"8  c #99BE43",
"9  c #96BB4A",
"0  c #9ABE4B",
"q  c #9CBE53",
"w  c #9CBE5B",
"e  c #9DC143",
"r  c #9EC14B",
"t  c #9EC154",
"y  c #9FC05A",
"u  c #A3C641",
"i  c #A1C34E",
"p  c #A1C354",
"a  c #A3C35C",
"s  c #A9C95E",
"d  c #9FC062",
"f  c #A5C563",
"g  c #A8C766",
"h  c #AAC964",
"j  c #A5C46A",
"k  c #A8C76B",
"l  c #ACC96D",
"z  c #A6C474",
"x  c #A9C673",
"c  c #ADCA73",
"v  c #AAC67A",
"b  c #AEC97B",
"n  c #B1CD75",
"m  c #B2CD7D",
"M  c #B4D074",
"N  c #B6D17B",
"B  c #ABC680",
"V  c #AEC982",
"C  c #B3CD83",
"Z  c #B4CE84",
"A  c #B6CF86",
"S  c #B1CA89",
"D  c #B3CC89",
"F  c #B3CC8A",
"G  c #B4CC8D",
"H  c #B5CE8C",
"J  c #B7D083",
"K  c #B9D384",
"L  c #BAD385",
"P  c #B7D08A",
"I  c #B9D189",
"U  c #B9D28A",
"Y  c #BCD48A",
"T  c #BBD38C",
"R  c #B9D18F",
"E  c #BFD888",
"W  c #B6CE92",
"Q  c #B8CF93",
"!  c #B9CF98",
"~  c #B9D091",
"^  c #BAD193",
"/  c #BDD491",
"(  c #BDD493",
")  c #BBD195",
"_  c #BCD197",
"`  c #BFD594",
"'  c #BFD597",
"]  c #BDD399",
"[  c #BBD09C",
"{  c #BFD2A3",
"}  c #C0D78F",
"|  c #C0D794",
" . c #C2D994",
".. c #C1D69C",
"X. c #C4D99B",
"o. c #C4D89D",
"O. c #C1D5A1",
"+. c #C3D6A3",
"@. c #C4D7A6",
"#. c #C6D9A3",
"$. c #C9DCA4",
"%. c #CADCA7",
"&. c #C3D5A9",
"*. c #C5D7AD",
"=. c #C7DAA9",
"-. c #C8DAA8",
";. c #CADCAA",
":. c #C9DBAD",
">. c #CBDCAD",
",. c #CEDFAF",
"<. c #CCDDB2",
"1. c #CFDFB5",
"2. c #D0DFB6",
"3. c #CDE0A7",
"4. c #CEE0AC",
"5. c #D2E3AD",
"6. c #CFE0B1",
"7. c #D2E2B4",
"8. c #D1E0B7",
"9. c #D6E6B5",
"0. c #D4E2BC",
"q. c #D9E7BA",
"w. c #D7E3C2",
"e. c #D7E4C1",
"r. c #D9E6C3",
"t. c #DCE9C6",
"y. c #DBE6C8",
"u. c #DEE9CB",
"i. c #E1EBCE",
"p. c #E3EDD2",
"a. c #E4EDD3",
"s. c #E6EED9",
"d. c #EAF1DD",
"f. c #EEF3E4",
"g. c #F0F5E6",
"h. c #F2F7EB",
"j. c #F4F8ED",
"k. c #F6F9F1",
"l. c #F9FBF4",
"z. c #FCFDF9",
/* pixels */
"* > , # O C < < 1 i < 1 G - - 8 : : : D : * 2 * 2 T : < 1 e 8 8 ` 7 1 1 < - < Z > - 4 + o b < < 1 r 8 # T $ - 8 - - - z y > 4 : ",
": # # $ 1 c # # * = , # D . # * > % # j a # # > $ x % # $ = 1 e D = # # = # # 1 b # # > = s # # $ = 8 . D # # + , # + # D # # = ",
"C = > 2 > n # = + * = O ] = # > , $ # + ! = > 2 = j < > # $ 2 2 W o * # = # # # ~ = > > > h q = # = > # ) > # $ > $ # # ~ # > , ",
"O.$ # + > 8 ~ # = # > > :.* O = O * # # ..# # + , > T # = # e # =.; > X > = # # { # # # > 1 / # = # , > O.y X > o = # # O.# # + ",
"<.# $ > > 8 T q $ $ = > -.D X > * > * % :.# # > > , J j # > # # @.[ ,   # * = $ :.: # = > 5 m j # $ # > D *.o = # = = # &.9 + > ",
"S -.= # = > 2 L a $ = , m 6.X = $ + = > z 6.= # = > 2 Y f # > 2 m <.1 + # $ = > d e.= # : : 4 N k $ * , c 4.9 > $ # & , q e.1 # ",
", ..p.%.m f a N q.+.> = m i @.O # $ O = 2 T a.:.C f a m 9.;.8 2 b e %.< # + # > , Z a.<.J f a m 5.<.8 , c 2 =.9 O # $ = , c p.8.",
"# D ;.#.y C Z b 5 T | p Z = t <.j X # # # S %.-.y C Z m e M ` g J $ 9 6.v $ $ O # v %.4.a V Z C r L ` f T , : :.B $ # O # z X.7.",
"o.p T = # # # = = n * ..X.= # = &.r.7.=...a ` # # # # = > N $ / %.= > $ X.e.8.=...g | # $ # # $ = n = T ,., # # ~ r.0.-...l ` = ",
", m 9 # $ $ $ > 1 f $ # a.= = # $ # = $ , n w # # # = , 2 l = + p.= 4 # # # > # > k j $ # # # = o l > + u.q * > # $ = = = a c # ",
"$ ` # # # $ 4 . j = , = ] 8 > # + & + , # T # $ # $ = > l > > - N x # # # # # > > T # # # # , # 9 w , : g S * # * + # & > Y $ # ",
"V f $ $ $ = > o j $ & # # x $ , = = > = x b $ $ = > - = h = > + # x # , = = , = y G $ $ # , o > f $ & # + c # , = & , = 9 _ $ $ ",
"0.$ = > , = + + h $ - # + f # # $ # $ = r.$ $ > > # = $ l $ = # # a + # = # # # r.> $ , , # # = f $ > # + g # # # * # # 0.0 = , ",
"0.> > * $ # # f 8 # , # # c + # + $ > y.r.> > > $ $ $ 0 t # , # # b # # + $ $ 0.p.> : $ # # # 0 s # > $ # k # # # # # <.d.= > = ",
"7.C $ + # # # | # $ = # # ) j # # b p.r.0.P # + # # $ _ # $ = # # B b # + x i.u.0.T $ # # = $ | # $ > # # z ) + + f t.u.0.X.= # ",
"# y ` x # $ -.N # $ $ # o Z k.t.%.C $ # # q / b = , O.| + $ 3 # + b l.u.:.P = # # 7 ` C $ + W X.# # $ # + q z.i.<.T = # # : | C ",
"# # # a T X.%.N # # = # + ~ a.x # # # # # # # a J  .7.l & # = + # C d.m = # # + # $ # 0 T  .9.n 7 # = + + j f.Z $ # # # # # # 9 ",
"# # # , = c r m c + = # + ] m 4 # # # # # # # = 1 l t b m # = # + J Y = + # # # # # # = , h t e T # * # # V | > # * # # % # % & ",
"= = , & a 9 = b J $ $ = # c l t 3 4 - = = > = = t p = 1 E 7 $ = # b l p , & 1 = = = > = 8 t $ 1 X.0 # > # l h f , > , & = = = = ",
"# # # f r # = r 3 T $ = $ h 4 f y # # + # # # a r # = > c T # > $ f = g y # # + & # # t f # > # h Z > = * s 2 r f $ # # % # % q ",
"+ + P ] * $ > & 5 r N = # k , + 6.y + # + + x o.$ $ > $ b 8 T , $ a 4 o <.f + # # + j -.$ # > # u = L = = g > # #.x # + # + f ;.",
"- X.X.= # > # , > 4 r c 4 l > $ G k.P # = X. .9 # = $ = f , 8 C , l > = v l.| + + ` T f $ $ > # p 2 > m 8 c = = q z.#.# + T / j ",
"T 8 c # # = # r 1 > - 1 4.v $ * P e.] ` Y t h # # > $ e = > = > %.C $ = x u.` ` T t m # # > # = i > > = X.T # * 0 i.] ..T a s = ",
"# = 8.# # = $ g * * 3 = ~ y = # ` # o + # = %.# # > # f > = > = x V $ = ] = + O # , 0.# $ = # g = = , = a C $ = ~ 7 O + # = ,.= ",
"3 j j.# + * # 3.* $ > + 1 x = t f + # # % t l.# # = % 6.$ = = $ = c > 9 f + + # = 8 l.1 # > $ -.* $ , + > l = 1 k $ + # & , g.j ",
"- p.g.y # 1 j u.$ $ > + $ C 5 k # = = , = y.f.v # , q p.$ $ = = + 6 > h # & , > * 0.f.Q # = > d.= # # = # V , l # = = , > <.f.] ",
"] f $ f # * / d.$ # $ > r f l = , % $ # T x # h # = T f.7 + # > = g n 8 > & = + m m # s + = b g.9 # # 2 # c h 8 , = $ + x J $ h ",
"r 4 3 p - - c t T e $ $ c l h = # + # N p , , r 9 = l r T t # = c h h = # # # c a 2 , e 0 : c 2 T a # $ l h n = # + # c h , 4 1 ",
"t T T L ` 4 x 5 = Z x r  .E 3 = 1 J L 5 t T T Y o.> c 2 $ m m > |  ., = > Z J r i Y Y L %.= c 1 * m Z , Y  .4 & , m T r 5 T T L ",
"J = # # =.l e > 5 1 ' t.r.:.W V _ #.4. .J > $ $ +.s j = , $ J u.e.:.W V ~ #.4.X.D 1 # # ~ h c > 2 * m t.y.<.W Z G O.4.X.T 1 & # ",
"= * $ # r 4.$ $ > * 4 :.5 $ # # # + G b > # * $ X 5.= & 2 > # <.= = # # # # b T > $ # # 1 ;.8 $ > > > :.2 = # # # # j .., = # $ ",
"= > # : # =.# # = > : / y 5 $ # # # # ! % > # # $ :.# # = 1 # c j & = # # # # _ = > $ * 1 ;.$ $ * 2 1 a D > = # # # # ) # > $ # ",
"= : = + o D $ * * e $ > G # # , $ # # D - > > * 5 T $ * * 5 : : / = > # $ # # V = > = + O V $ * * , 1 . R X # 1 $ # # b t > > * ",
"$ $ > * > c $ $ = 1 1 $ D + $ = 1 * # z q # > # # b * $ > > 5 e G : # > : = $ 0 z # > > = a $ $ > : 2 o D # $ $ > $ $ # D + , = ",
"v + # > : n * $ # $ > O Q $ # : > # # # D + # > $ j = $ # $ 1 5 ~ + $ # $ # # # Q # # # > l 9 # # $ 2 # G > # # 2 # # # D # + = ",
"#.> > = > p m * # * > = *.* + = + = # $ ] > 1 - 5 - W * # $ 5 $ #.# = o > = # # ..: > > * 8 T = # $ , : @.q o > O = # # _ > > > ",
"-.+ + > > 1 ..7 = # = : 7.v X > $ , # # <.# # # - , P 0 > # = @ *.W >   # > $ # =.+ # $ * 2 T f = # $ 1 P { o = # # = # *.; # # ",
"_ ~ = # > > ,  .7 > = > m <.. : $ # 4 - V @.# $ * > 5 / 9 = : , m 0.> o # # = > z <.$ $ # - 2 L w = = > c 7.: > $ $ , = y 0.# = ",
", <.r.T 8 , > u 7.T : 2 m g Q o # = + = > :.u.~ e , > u 4.| & 4 m t &.# # + + , > ..i._ q = , u %.#.> , n r =.: + # $ , > T p.] ",
"# v 6.0.C #.%...l  . .r Z , g -.9 X # # # j 4.e.Z +.=.` n T X.t C # f <.q # * + # f %.y.Z X.-...c } X.a L , 9 <.w $ + O # q %.u.",
"` c  .$ # # # = = c + ..T = $ 9 6.w.<.@...n T = # # $ = > J o X.o.= , < <.e.<.@...C | > # # # $ = M + ` @.> # % =.w.<.=.] J L 9 ",
"> c y # $ # $ , = x + 7 a.= = # * $ = = , l j # # $ # 1 , l # $ s.= , # # = = = = a c # $ # $ * O l & O p.8 = = # $ = = , r C # ",
"= T # $ # # 5 X j & 1 $ @.> , # + # # = $ / # # # # = > g 1 1 $ R j = # + $ # = > W $ $ # # , $ < f > = b V = * = # # = = T # * ",
"v z $ # $ = , X j = & # = c = = * $ , = a V $ # $ 3 = : h $ > # $ b & = = # , = 9 T $ # # > # $ j * = # # c % = $ # , = : ` $ # ",
"0.# $ , = > # + g $ = # = j # $ = = # * 0.$ * > > $ = # l = = # # a # # = = # # 2.2 * > > * # > f = = # * f # % = = # # <.y $ > ",
"0.> > = $ # + a t # > # + l + # # $ # 6.u.> > * $ $ * 9 p # , # # c + # # # # ;.s.2 > $ # # # 1 f # , # # c + # # # $ / d.4 , > ",
"e.x # # # # # T $ $ = # # W q # + y u.d.t.x # # # $ # ~ # $ = # # b j + + 0 u.d.y.C # # $ $ # T $ $ = # # z m # # 8 e.f.u.T # # ",
"# l ` t + # ~ L + $ $ # X P f.<.%.` 8 # + j ` y # = Z X.# # = # o V h.<.;...0 # # a | d # # x ;.# # * # O q k.<.;...0 # # t ` j ",
"# # & C L -.q.n # # = # + ~ g.~ $ # # # # # $ b T X.t.h # # = # # V h...# # # # # # # c L X.i.c * # = + # f k.@.= # # # # # % k ",
"# # # $ = l p m g # = # + ..c > # # # # # # # $ = h a J c # = # + Z L = # $ # # # # # = = s a p T $ = # + V ` = # = # # # # # # ",
"= , = = 0 p = b J & = = # n m e , = , = = 4 , = t a = e E $ # = # C n p , = , = = , = = 8 f = > %.7 # > # c c p > = > = = , > , ",
"# # # p p $ = t 4 Z # & * l > l 8 # # # # # + 0 a # = , c T # , $ f = h 8 # $ + # # # 9 s # = = h L * = * g 4 f t = # # # # # 1 ",
"+ + j ..$ # = @ 4 f N = $ h , # 2.9 + $ + + f @.# # > $ b p J 2 $ p 4 O :.0 + # + + 0 %.$ # = # u r L = = j > # #.a # # # # 7 6.",
"# ~ 4.1 $ , # , , , a c 1 h > # Q g.f O # C X.t # = = $ j , t n = c > = V j.c + # m X.x $ $ - # r > r N , g > = a k.C o O c X.x ",
"| a h # # $ * q > > , 9 %.b $ # Z a.<.| / k s # # > = 1 > > > 8 X.b $ = j a.:. .T x l $ # > # = p > > < o.T $ $ 8 f.6.X.T b p < ",
"# , :.# # = * h * > > # _ a = # ..# o o # , X.# # > # a > $ > $ S C = = | 9 + + # , :.# # , # a > $ 4 # f C $ = W 0 o o + 4 #.& ",
"= t g.# # = # X.$ * > > 9 x = r l o # # = 8 j.# # = $ -.= * = = = c = 7 c + + # = > f., # $ # o.= $ > > > l = = c $ + # = = f.f ",
"= u.l.q # 1 a i.$ $ = # $ V = k # # = 4 = 0.k.j + > 7 a.$ # = # $ 6 & n * + = , = <.l.D O , = d.$ $ # > # b , l & # = , = ] l.] ",
"/ C 1 f + $ ` d.$ # # > 1 l l 8 , = # # C T = l # * T g.# # # , # l h 8 , = = # b ` = c # = l j.; # # > # c f t , = $ # k X.= l ",
"a , > p # - c c T * # = c f h = # # # c f , , i < = l g | 1 # = c p n = # # # g l 4 1 5 9 = x a  .9 # $ f h M = + # # f l = , r ",
", J T L T > x , = T y 4 E E > # # g L r , C Y | ` , g 2 = T j > L | = # % f L p 4 m Y L  ., c < # L l = L  .> # # a L a 4 c T Y ",
"` 9 $ # 7.h t - > 1 +.0.p.=.T G O.6.X./ T t # $ 6.r x > > $ ..8.i.<.T T ..<.X./ T f $ # =.p c , 2 # T 9.i.<.~ T ] 7.X.` ` a = # ",
"# - # # t 4.$ # 4 > > 0.4 $ # # # + &.n = $ $ $ $ 5.= = , > $ 0., # # # # + ! T > # $ # > %.t $ 1 = 1 8.1 = # # # + S  .= $ # # ",
"> > # , # :.# # , > 1 ` t 4 # $ # # # _ 2 = # # # <.# # > : # C d & > # # # # _ > > $ $ 2 =.# $ = 4 1 j b , = # # # # [ > 2 # $ "
};
